<?xml version="1.0" encoding="UTF-8"?>
<svg version="1.1" xmlns="http://www.w3.org/2000/svg" width="4500" height="4500">
<path d="M0 0 C2.97429708 1.29621265 5.43301688 3.0308826 8 5 C9.4540625 6.051875 9.4540625 6.051875 10.9375 7.125 C15.05429739 10.70098486 18.31700451 15.08721956 21.68896484 19.34765625 C23.08211551 21.10349307 24.48715823 22.84929557 25.89453125 24.59375 C30.69164926 30.5492211 35.43317348 36.53812132 40.0625 42.625 C45.15296872 49.27861908 50.53008 55.6565889 56 62 C56.61488281 62.71671875 57.22976563 63.4334375 57.86328125 64.171875 C59.55864201 66.13023922 61.27528184 68.06744054 63 70 C63.78503906 70.88945312 64.57007813 71.77890625 65.37890625 72.6953125 C107.84943261 120.32240929 165.66723754 143.06155887 228 151 C228.67768433 151.08720306 229.35536865 151.17440613 230.05358887 151.26425171 C244.86532029 153.11337953 259.58712366 153.35979352 274.5 153.3125 C276.28914825 153.30976578 276.28914825 153.30976578 278.11444092 153.30697632 C295.6145089 153.26194488 312.698203 152.80651083 330 150 C331.1226123 149.82839355 332.24522461 149.65678711 333.40185547 149.47998047 C399.25665216 139.29174357 456.32006318 110.14191944 498 57 C500.36053603 54.07142435 502.74162225 51.1599961 505.125 48.25 C505.69943848 47.54045166 506.27387695 46.83090332 506.86572266 46.09985352 C518.89892438 31.3866706 518.89892438 31.3866706 527 30 C536.59842052 29.64790483 543.09134133 32.96132145 550 39.375 C571.29232772 61.77596347 576.37103081 99.03542255 582.51126099 127.98605347 C590.26896656 164.42909793 599.63863965 199.84768301 612 235 C612.42780762 236.21864746 612.85561523 237.43729492 613.29638672 238.69287109 C629.25068762 283.73323583 649.49995559 327.69287703 673.33642578 369.08300781 C675.05172245 372.09069266 676.73158345 375.11580496 678.40234375 378.1484375 C690.0251543 399.23419818 702.85615166 419.40424397 716.1875 439.4375 C716.68497742 440.18569 717.18245483 440.93388 717.69500732 441.70474243 C727.10462505 455.83703957 736.78149651 469.78344855 746.875 483.4375 C747.4517749 484.21843018 748.0285498 484.99936035 748.62280273 485.80395508 C758.12690907 498.61551616 768.01412519 511.11493661 778.11328125 523.4609375 C780.4575601 526.32743042 782.76713235 529.21911188 785.0625 532.125 C789.20472641 537.31797986 793.53427151 542.3441695 797.875 547.37109375 C799.89025721 549.70497609 801.89046001 552.05010749 803.875 554.41015625 C811.26531926 563.17456765 819.04356095 571.52439091 826.94335938 579.83007812 C830.94248933 584.04948304 834.90264757 588.30566788 838.86450195 592.56005859 C846.55558187 600.79213464 846.55558187 600.79213464 854.875 608.375 C857.8846753 610.96634205 860.71088616 613.67254783 863.5 616.5 C866.85256779 619.89268399 870.29475682 623.09100684 873.9140625 626.1953125 C876.25025501 628.21651276 878.52964851 630.29378839 880.8125 632.375 C885.52843331 636.62648533 890.39765458 640.65047079 895.33349609 644.64257812 C897.23784112 646.19372936 899.12923131 647.75988929 901.01953125 649.328125 C909.54804318 656.40118681 918.12721941 663.36034185 927 670 C927.68755371 670.51498047 928.37510742 671.02996094 929.08349609 671.56054688 C965.98432805 699.12560504 1004.59194053 723.9119135 1045 746 C1046.08152344 746.59490234 1047.16304687 747.18980469 1048.27734375 747.80273438 C1122.8441111 788.74049872 1202.78679235 819.01940756 1468 873 C1468.786026 873.06058594 1469.572052 873.12117188 1470.38189697 873.18359375 C1561.97399819 880.10073683 1654.59890329 871.97276455 1852 823 C1852.70858154 822.76494751 1853.41716309 822.52989502 1854.1472168 822.28771973 C1897.422458 807.87899039 1939.06763968 789.01587533 1980 769 C1980.93312012 768.54705566 1981.86624023 768.09411133 1982.82763672 767.62744141 C1996.17701818 761.13825597 2009.12503906 754.09601887 2021.99658203 746.70898438 C2025.09845698 744.94397668 2028.2159437 743.21007593 2031.33984375 741.484375 C2044.17574915 734.39133717 2056.74381597 727.05463817 2069 719 C2070.0607373 718.30293945 2071.12147461 717.60587891 2072.21435547 716.88769531 C2084.96827799 708.49030225 2097.71768691 700.0795451 2110 691 C2110.62342285 690.53964355 2111.2468457 690.07928711 2111.88916016 689.60498047 C2135.13837065 672.40158366 2157.89162714 654.36585086 2179.0859375 634.66796875 C2181.27252596 632.66603857 2183.47699203 630.70719393 2185.71557617 628.76513672 C2189.70317082 625.28023564 2193.60386115 621.71414271 2197.46484375 618.08984375 C2198.14876694 617.44796616 2198.83269012 616.80608856 2199.53733826 616.14476013 C2206.65008266 609.43586966 2213.59167911 602.56001435 2220.49438477 595.63598633 C2222.58950092 593.53542896 2224.6900231 591.44038126 2226.79101562 589.34570312 C2228.15396713 587.98209189 2229.51660897 586.61817107 2230.87890625 585.25390625 C2231.49254532 584.64229141 2232.10618439 584.03067657 2232.73841858 583.40052795 C2236.4699664 579.64899272 2240.00332458 575.7720443 2243.46403503 571.76954651 C2245.14451153 569.8335119 2246.87585906 567.95740441 2248.6484375 566.10546875 C2249.2566333 565.46569092 2249.8648291 564.82591309 2250.49145508 564.16674805 C2251.1130249 563.51359619 2251.73459473 562.86044434 2252.375 562.1875 C2257.45735538 556.810985 2262.28394154 551.3612441 2266.89453125 545.57421875 C2269.17200846 542.78969652 2271.56312008 540.14586197 2274 537.5 C2278.41377112 532.6935928 2282.5636031 527.72889917 2286.65869141 522.65039062 C2288.20187037 520.751612 2289.76190797 518.86744261 2291.32421875 516.984375 C2297.88507356 509.07439172 2304.33621926 501.11714668 2310.5390625 492.921875 C2312.26677327 490.64905762 2314.00830675 488.38711953 2315.75 486.125 C2323.59250232 475.91902959 2331.22954136 465.6130659 2338.57324219 455.04296875 C2340.00803421 452.98849584 2341.45819097 450.94582986 2342.9140625 448.90625 C2357.73628423 428.12521057 2371.49485946 406.65349349 2385 385 C2388.61589859 386.73522677 2391.57304095 388.84914723 2394.75 391.3125 C2395.31146729 391.74763916 2395.87293457 392.18277832 2396.45141602 392.63110352 C2401.68786968 396.7113734 2406.83396636 400.90162695 2411.97436523 405.10180664 C2416.38293928 408.70054538 2420.82795701 412.24647014 2425.3125 415.75 C2430.27446694 419.62910484 2435.17917651 423.5681877 2440.04296875 427.5703125 C2443.58038546 430.47688211 2447.13309105 433.36425491 2450.6875 436.25 C2451.3673999 436.80228271 2452.0472998 437.35456543 2452.74780273 437.92358398 C2456.15876389 440.69406423 2459.57087975 443.46311142 2462.984375 446.23046875 C2471.38629988 453.04497142 2479.75286108 459.9008209 2488.09765625 466.78515625 C2491.30572996 469.43087078 2494.52539232 472.06194861 2497.75 474.6875 C2502.29395678 478.39713391 2506.76704418 482.18522022 2511.23535156 485.98510742 C2514.44949596 488.71082792 2517.69678053 491.38205134 2521 494 C2525.45253701 497.52883403 2529.78685979 501.18229329 2534.11328125 504.86328125 C2537.54571609 507.78004513 2541.00592815 510.65693426 2544.5 513.5 C2549.1045358 517.24787798 2553.64019191 521.06983444 2558.1640625 524.9140625 C2561.5805954 527.81244823 2565.02504838 530.671551 2568.5 533.5 C2575.30413786 539.04192098 2581.97975878 544.73308923 2588.66601562 550.41601562 C2595.12406926 555.90270514 2601.61497616 561.33777129 2608.1875 566.6875 C2611.8809391 569.7243277 2615.52298486 572.81960955 2619.16625977 575.91625977 C2622.55954109 578.7954532 2625.98267786 581.63204237 2629.4375 584.4375 C2634.30049424 588.39443418 2639.05700203 592.46435942 2643.80615234 596.55615234 C2648.22031766 600.35163367 2652.70333198 604.05277913 2657.22265625 607.72265625 C2660.34396367 610.28204054 2663.4245003 612.88593791 2666.5 615.5 C2670.46903543 618.87283589 2674.46017021 622.21176645 2678.5 625.5 C2683.1045358 629.24787798 2687.64019191 633.06983444 2692.1640625 636.9140625 C2696.46013044 640.55859407 2700.81368341 644.1278734 2705.18359375 647.68359375 C2708.33785192 650.27787266 2711.4520298 652.91606265 2714.5625 655.5625 C2719.11145416 659.43123672 2723.72507098 663.1977835 2728.40625 666.90625 C2731.48079625 669.38811263 2734.49172479 671.93855882 2737.5 674.5 C2742.12453878 678.43603518 2746.80435856 682.28410655 2751.5625 686.05859375 C2755.03743206 688.82628803 2758.46715285 691.64808384 2761.90234375 694.46484375 C2765.48906091 697.40348632 2769.08813563 700.32687196 2772.6875 703.25 C2773.36635254 703.80131592 2774.04520508 704.35263184 2774.74462891 704.9206543 C2776.13619181 706.0506661 2777.52779366 707.18062995 2778.91943359 708.31054688 C2781.61724804 710.50121526 2784.31443062 712.69266052 2787.01147461 714.88427734 C2788.33897192 715.96289947 2789.66660904 717.04134954 2790.99438477 718.11962891 C2794.35586545 720.84972797 2797.71513245 723.58247272 2801.0703125 726.3203125 C2809.06845363 732.84222859 2817.12181387 739.28372637 2825.25585938 745.63525391 C2827.07494278 747.05864084 2828.88957326 748.48754169 2830.703125 749.91796875 C2836.7495116 754.68568019 2842.80971557 759.41918952 2849 764 C2847.40757723 769.16025607 2844.19655115 772.85339936 2840.875 777 C2839.60182773 778.61246311 2838.32973526 780.22577927 2837.05859375 781.83984375 C2836.39327637 782.68272949 2835.72795898 783.52561523 2835.04248047 784.39404297 C2831.62904709 788.74916942 2828.28383848 793.15573919 2824.9375 797.5625 C2823.58599322 799.33988612 2822.23443125 801.11723027 2820.8828125 802.89453125 C2820.22958008 803.75385254 2819.57634766 804.61317383 2818.90332031 805.49853516 C2816.04598627 809.25382564 2813.18000303 813.00247168 2810.3125 816.75 C2809.787771 817.43586182 2809.26304199 818.12172363 2808.72241211 818.82836914 C2807.67388365 820.19877296 2806.62530003 821.56913456 2805.57666016 822.93945312 C2802.8836179 826.45900665 2800.1918862 829.97956226 2797.5 833.5 C2796.41667271 834.91667128 2795.33333938 836.33333796 2794.25 837.75 C2793.71375 838.45125 2793.1775 839.1525 2792.625 839.875 C2756.33333333 887.33333333 2720.04166667 934.79166667 2683.75 982.25 C2683.2130249 982.9522168 2682.6760498 983.65443359 2682.12280273 984.37792969 C2681.04686621 985.78488625 2679.9708579 987.19178791 2678.89477539 988.59863281 C2676.07265893 992.28840133 2673.25204853 995.97930853 2670.43359375 999.671875 C2669.84835938 1000.43822266 2669.263125 1001.20457031 2668.66015625 1001.99414062 C2667.5438072 1003.45602628 2666.42789422 1004.91824508 2665.3125 1006.38085938 C2664.31960697 1007.68071551 2663.31987095 1008.9753853 2662.31201172 1010.26367188 C2661.1504063 1011.80095095 2660.09883221 1013.42002198 2659.06640625 1015.046875 C2658.38449219 1015.69140625 2657.70257812 1016.3359375 2657 1017 C2651.34301073 1016.69402448 2646.73014553 1014.87650988 2641.62109375 1012.640625 C2640.82513794 1012.30029739 2640.02918213 1011.95996979 2639.20910645 1011.60932922 C2636.61496874 1010.49772871 2634.02621477 1009.37416491 2631.4375 1008.25 C2629.62145465 1007.46801915 2627.80512662 1006.68669449 2625.98852539 1005.90600586 C2622.34447833 1004.33833335 2618.70262413 1002.76572407 2615.0625 1001.18896484 C2610.73541657 999.3155482 2606.40089396 997.46031564 2602.0625 995.61328125 C2582.25122983 987.1501103 2562.71646705 978.10752873 2543.18688965 969.01757812 C2540.01353191 967.54098811 2536.83881799 966.06733247 2533.6640625 964.59375 C2530.35611529 963.0581394 2527.04822675 961.52240467 2523.74072266 959.98583984 C2514.2740934 955.58850018 2504.80402702 951.19860757 2495.32958984 946.81811523 C2493.64279628 946.03793729 2491.95626187 945.25719872 2490.27001953 944.47583008 C2485.60471374 942.3143293 2480.93308705 940.16759731 2476.25415039 938.0357666 C2473.96591736 936.98433926 2471.68904273 935.91060559 2469.41210938 934.83496094 C2467.96775734 934.16794935 2466.52310921 933.50157845 2465.078125 932.8359375 C2464.42068298 932.51847565 2463.76324097 932.20101379 2463.08587646 931.87393188 C2459.51891436 930.21609439 2459.51891436 930.21609439 2455.73779297 930.67773438 C2453.03387744 932.73511096 2450.43638368 934.89518702 2447.875 937.125 C2446.70923352 938.12604926 2445.54255879 939.12604175 2444.375 940.125 C2443.80136719 940.61613281 2443.22773438 941.10726562 2442.63671875 941.61328125 C2439.62562652 944.16444531 2436.52898593 946.60621308 2433.4375 949.05859375 C2430.89887058 951.08054699 2428.3846667 953.12972269 2425.875 955.1875 C2423.91672433 956.79173713 2421.9584196 958.39593859 2420 960 C2419.09024414 960.74540039 2419.09024414 960.74540039 2418.16210938 961.50585938 C2410.26564953 967.9694621 2402.32390806 974.34916645 2394.2109375 980.5390625 C2390.78049567 983.15886454 2387.38935736 985.82738011 2384 988.5 C2378.01985554 993.20937399 2372.007417 997.87492348 2365.96142578 1002.49951172 C2364.53734796 1003.58892948 2363.11393201 1004.67921261 2361.69091797 1005.77001953 C2351.56066805 1013.53292769 2341.39040166 1021.23203156 2331.09741211 1028.77807617 C2325.34528652 1032.99749809 2319.63541173 1037.27022353 2313.9375 1041.5625 C2304.71666836 1048.5037296 2295.38296776 1055.28007261 2286 1062 C2287.51759525 1070.5674941 2289.80220856 1078.90307321 2292.12890625 1087.27734375 C2292.55111545 1088.80726981 2292.97299605 1090.33728658 2293.39457703 1091.86738586 C2294.30282724 1095.16129597 2295.21323618 1098.4545987 2296.12536621 1101.74743652 C2297.58472043 1107.01590297 2299.03936473 1112.28566246 2300.49316406 1117.55566406 C2302.03768235 1123.15384353 2303.58244971 1128.75195335 2305.12875366 1134.34963989 C2308.9874619 1148.3195667 2312.83164246 1162.29344249 2316.66796875 1176.26953125 C2317.08155482 1177.77611707 2317.08155482 1177.77611707 2317.50349617 1179.31313896 C2319.68191775 1187.2486642 2321.85989059 1195.18431259 2324.03758621 1203.12003708 C2325.55583355 1208.65256892 2327.0747332 1214.18492102 2328.59420967 1219.7171154 C2329.31935782 1222.35868789 2330.04340251 1225.00056099 2330.76731873 1227.64247131 C2333.12996628 1236.25631843 2335.51931456 1244.86160299 2337.95507812 1253.45507812 C2338.65736545 1255.94314046 2339.35918931 1258.43133316 2340.06093597 1260.91954803 C2340.71579255 1263.23127653 2341.37909927 1265.54046448 2342.04278564 1267.84967041 C2342.43746407 1269.24699479 2342.83175371 1270.64442907 2343.22558594 1272.04199219 C2343.56974548 1273.24668152 2343.91390503 1274.45137085 2344.26849365 1275.69256592 C2344.98092493 1278.91375393 2345.14206107 1281.71414377 2345 1285 C2344.30777344 1285.3810791 2343.61554687 1285.7621582 2342.90234375 1286.15478516 C2329.48409987 1293.55117222 2316.13326746 1301.03211875 2302.92382812 1308.79736328 C2295.83227599 1312.95669651 2288.68391745 1317.00256043 2281.5 1321 C2273.2779741 1325.575664 2265.1141857 1330.23570748 2257 1335 C2247.85086711 1340.37196793 2238.62596869 1345.59076525 2229.35546875 1350.75 C2222.18646305 1354.74964452 2215.07907237 1358.84348044 2208 1363 C2199.8858123 1367.7642937 2191.72199211 1372.42427153 2183.5 1377 C2172.93776818 1382.87824161 2162.47966297 1388.92115302 2152.0546875 1395.0390625 C2151.18038086 1395.54727539 2150.30607422 1396.05548828 2149.40527344 1396.57910156 C2147.90322566 1397.46642577 2146.41407064 1398.37641016 2144.94628906 1399.31933594 C2140.61053169 1402.0487384 2140.61053169 1402.0487384 2137.53808594 1401.8034668 C2134.63972736 1400.88595063 2133.36943293 1399.84657179 2131.2578125 1397.68359375 C2130.58363281 1397.00103516 2129.90945312 1396.31847656 2129.21484375 1395.61523438 C2128.52519531 1394.89658203 2127.83554688 1394.17792969 2127.125 1393.4375 C2126.44308594 1392.74591797 2125.76117187 1392.05433594 2125.05859375 1391.34179688 C2121.92822418 1388.14285731 2118.90849231 1384.89315829 2116.00146484 1381.49047852 C2111.46153552 1376.28401018 2106.55853022 1371.44623785 2101.65846252 1366.58329773 C2099.93127324 1364.86905414 2098.2073868 1363.15154698 2096.48425293 1361.43322754 C2092.82566029 1357.78597559 2089.16313719 1354.14268685 2085.5 1350.5 C2081.24986631 1346.2735937 2077.00142938 1342.04550978 2072.75721741 1337.81315613 C2071.0716171 1336.13396365 2069.38299859 1334.45784924 2067.69421387 1332.78186035 C2062.91512883 1328.02534381 2058.26206323 1323.23061825 2053.87805176 1318.10290527 C2049.99312561 1313.75284855 2045.79697413 1309.69045204 2041.65846252 1305.58329773 C2039.93127324 1303.86905414 2038.2073868 1302.15154698 2036.48425293 1300.43322754 C2032.82566029 1296.78597559 2029.16313719 1293.14268685 2025.5 1289.5 C2021.24986631 1285.2735937 2017.00142938 1281.04550978 2012.75721741 1276.81315613 C2011.0716171 1275.13396365 2009.38299859 1273.45784924 2007.69421387 1271.78186035 C2002.78900875 1266.89982331 1997.98947251 1261.98318212 1993.49081421 1256.71789551 C1991.20426301 1254.0830561 1988.75930211 1251.64766764 1986.28515625 1249.1875 C1985.78455185 1248.68831055 1985.28394745 1248.18912109 1984.76817322 1247.67480469 C1983.20199236 1246.1141263 1981.63233529 1244.55700153 1980.0625 1243 C1978.98609346 1241.92862113 1977.90991986 1240.85700818 1976.83398438 1239.78515625 C1974.22533255 1237.18740362 1971.61355529 1234.59282038 1969 1232 C1968.16380127 1232.30067383 1967.32760254 1232.60134766 1966.46606445 1232.91113281 C1918.53386707 1250.10007288 1870.1043599 1265.01332004 1820.625 1277.125 C1819.52196533 1277.39512909 1818.41893066 1277.66525818 1817.2824707 1277.943573 C1806.59979221 1280.54928255 1795.90393251 1283.07838458 1785.1484375 1285.3671875 C1784.36183746 1285.53550079 1783.57523743 1285.70381409 1782.76480103 1285.87722778 C1779.78648887 1286.49754107 1777.05123644 1287 1774 1287 C1773.91167404 1287.9657193 1773.82334808 1288.9314386 1773.73234558 1289.92642212 C1770.95175361 1320.3237537 1768.15867701 1350.71993145 1765.35790253 1381.11540985 C1765.05483881 1384.40479236 1764.75187032 1387.69418362 1764.44895321 1390.98357964 C1763.00657419 1406.64591441 1761.56118187 1422.30796534 1760.10887814 1437.96938324 C1759.49211085 1444.62104454 1758.8765135 1451.27281054 1758.26400757 1457.92486572 C1757.68401902 1464.22213407 1757.10062325 1470.51907746 1756.51459312 1476.81578636 C1756.29809636 1479.14829345 1756.08282875 1481.48091498 1755.86884499 1483.81365395 C1755.5760214 1487.00360902 1755.27881431 1490.19312571 1754.98046875 1493.38256836 C1754.89532611 1494.32141687 1754.81018347 1495.26026539 1754.72246075 1496.22756386 C1754.64155602 1497.08272276 1754.5606513 1497.93788166 1754.47729492 1498.81895447 C1754.4087883 1499.55907744 1754.34028168 1500.29920042 1754.2696991 1501.06175137 C1754 1503 1754 1503 1753 1506 C1747.22212509 1506.93015952 1741.4861594 1507.33628472 1735.64515686 1507.65174866 C1734.61576522 1507.70977282 1733.58637358 1507.76779697 1732.52578825 1507.82757944 C1729.0838349 1508.02084278 1725.64165701 1508.20975904 1722.19946289 1508.39868164 C1719.72866923 1508.53650329 1717.25789015 1508.67458662 1714.78712463 1508.81291199 C1708.77701312 1509.1486659 1702.76675054 1509.48158155 1696.75640661 1509.81313998 C1689.75251739 1510.19961089 1682.74880029 1510.58915848 1675.74508613 1510.97878676 C1663.2453192 1511.67404819 1650.74538568 1512.36626865 1638.24536133 1513.05688477 C1626.12510077 1513.72651984 1614.00498341 1514.398678 1601.88500977 1515.07348633 C1588.67820961 1515.80880303 1575.47133306 1516.54271975 1562.26432031 1517.27420896 C1560.85498484 1517.35226878 1559.44564941 1517.43032926 1558.03631401 1517.50839043 C1557.34294883 1517.54679298 1556.64958366 1517.58519554 1555.93520742 1517.62476181 C1551.05718125 1517.89502187 1546.17920923 1518.16624613 1541.30125618 1518.43782234 C1534.7309453 1518.80357582 1528.16050425 1519.16692298 1521.58997154 1519.52867317 C1519.17928504 1519.6617467 1516.76863984 1519.79557085 1514.35803986 1519.93020248 C1511.06607823 1520.11393092 1507.77397728 1520.29492727 1504.48182678 1520.47523499 C1503.52938538 1520.52902614 1502.57694398 1520.5828173 1501.59564072 1520.63823849 C1496.38753928 1520.92018901 1491.21577572 1521.05114256 1486 1521 C1483.04428544 1514.59266942 1480.48200119 1508.10363232 1478.0859375 1501.46875 C1477.71926971 1500.46176559 1477.35260193 1499.45478119 1476.974823 1498.4172821 C1476.18515618 1496.24755448 1475.39692103 1494.07730536 1474.60998535 1491.90658569 C1472.91466749 1487.23021803 1471.21241128 1482.55638503 1469.51062012 1477.88237 C1468.62981074 1475.4629951 1467.74936143 1473.04348909 1466.8692627 1470.62385559 C1463.04520949 1460.11271389 1459.19104438 1449.61281257 1455.32778931 1439.11602783 C1449.93709684 1424.46864469 1444.56299754 1409.81530832 1439.21484375 1395.15234375 C1438.96722731 1394.47350254 1438.71961086 1393.79466133 1438.46449089 1393.09524918 C1436.20855114 1386.91041079 1433.95301327 1380.72542597 1431.69857788 1374.54003906 C1424.72093524 1355.39515644 1424.72093524 1355.39515644 1417.6484375 1336.28515625 C1417.33161514 1335.43548279 1417.01479279 1334.58580933 1416.68836975 1333.71038818 C1415.28205934 1329.9428852 1413.87077731 1326.17734017 1412.4519043 1322.41455078 C1411.97965018 1321.15527523 1411.50740048 1319.89599801 1411.03515625 1318.63671875 C1410.6369165 1317.58186279 1410.23867676 1316.52700684 1409.82836914 1315.44018555 C1409 1313 1409 1313 1409 1311 C1408.32956665 1311.00983414 1407.6591333 1311.01966827 1406.96838379 1311.02980042 C1400.37341666 1311.08434671 1393.90691816 1310.77470415 1387.34375 1310.15234375 C1386.3442482 1310.06063904 1385.3447464 1309.96893433 1384.31495667 1309.87445068 C1381.04249573 1309.57007079 1377.77117642 1309.25537653 1374.5 1308.9375 C1372.7952803 1308.77285751 1372.7952803 1308.77285751 1371.05612183 1308.60488892 C1322.56933003 1303.87791713 1274.23374687 1296.78029606 1226.70458984 1285.99414062 C1225.45887207 1285.71634766 1224.2131543 1285.43855469 1222.9296875 1285.15234375 C1221.84929199 1284.90476318 1220.76889648 1284.65718262 1219.65576172 1284.40209961 C1216.90359134 1283.77953479 1216.90359134 1283.77953479 1214 1285 C1212.30941843 1287.51154744 1210.76640576 1290.01058365 1209.25 1292.625 C1204.84239157 1300.03916262 1200.24546022 1307.29758498 1195.5 1314.5 C1190.49761984 1322.11177062 1185.63034738 1329.78120437 1180.91967773 1337.57641602 C1177.44946416 1343.30552395 1173.84390224 1348.93578457 1170.18774414 1354.54760742 C1166.81096069 1359.73408452 1163.48578448 1364.95077391 1160.1875 1370.1875 C1155.81012433 1377.13686072 1151.4132472 1384.07335985 1147 1391 C1142.65266919 1397.82456751 1138.31651542 1404.65589935 1134 1411.5 C1129.10152931 1419.26682652 1124.17510844 1427.01558233 1119.24169922 1434.76025391 C1113.46990947 1443.8246862 1107.73119536 1452.90986231 1102 1462 C1095.58147257 1460.14644432 1089.29886853 1458.09173167 1083.0546875 1455.71875 C1082.20137848 1455.39769791 1081.34806946 1455.07664581 1080.46890259 1454.74586487 C1078.59793382 1454.04145457 1076.72754317 1453.33550726 1074.85766602 1452.62820435 C1071.76755554 1451.45935874 1068.67595699 1450.29452544 1065.58398438 1449.13061523 C1060.93672797 1447.38106516 1056.29001819 1445.63007266 1051.64355469 1443.87841797 C1043.5495428 1440.82806336 1035.45088577 1437.79012483 1027.3515625 1434.75390625 C1026.63312731 1434.48457779 1025.91469212 1434.21524933 1025.17448616 1433.9377594 C1021.46456645 1432.54702439 1017.75458955 1431.15644201 1014.04458618 1429.76593018 C1007.13995956 1427.17800344 1000.23576573 1424.58892255 993.33157539 1421.99983215 C990.98195812 1421.11872257 988.6323289 1420.23764485 986.28269958 1419.35656738 C976.6700022 1415.75184805 967.05778367 1412.14585428 957.44589233 1408.53898621 C951.84111433 1406.43579408 946.23619478 1404.33297929 940.63124657 1402.23024082 C936.85251704 1400.8125894 933.07386246 1399.39473904 929.29541016 1397.97634888 C925.76625032 1396.65154911 922.2369143 1395.3272199 918.70741653 1394.00332069 C917.33635818 1393.48901058 915.96534265 1392.97458626 914.5943718 1392.46004295 C906.45529093 1389.40585096 898.30940782 1386.37086431 890.15478516 1383.35839844 C888.51853587 1382.75329534 886.88229011 1382.14818273 885.24604797 1381.5430603 C882.1044531 1380.38138565 878.96151287 1379.22345009 875.8177948 1378.0675354 C874.40167712 1377.54433458 872.98560314 1377.02101545 871.56958008 1376.49755859 C870.58952846 1376.13894304 870.58952846 1376.13894304 869.58967781 1375.77308273 C865.11359613 1374.11359613 865.11359613 1374.11359613 864 1373 C863.8838262 1369.97716852 863.84610575 1366.98465462 863.85766602 1363.9609375 C863.86008836 1362.9539682 863.8625107 1361.9469989 863.86500645 1360.90951538 C863.96918843 1344.76096095 864.61850725 1328.61964621 865.17864299 1312.481987 C865.34637181 1307.62691757 865.5097647 1302.77170192 865.67372131 1297.91650391 C865.94940999 1289.77041801 866.22796138 1281.62443432 866.50854492 1273.47851562 C866.86625122 1263.09322886 867.21936511 1252.7077914 867.57096004 1242.32229614 C867.87636556 1233.30174743 868.18371053 1224.28126493 868.49145055 1215.26079559 C868.5888178 1212.40509042 868.68596471 1209.54937781 868.78309441 1206.69366455 C869.43810695 1187.45853909 870.09949194 1168.22556695 871 1149 C870.06130569 1148.69627975 869.12261139 1148.39255951 868.1554718 1148.07963562 C865.17488428 1147.05983615 862.74859081 1145.86508593 860.04296875 1144.26953125 C858.64050903 1143.44751221 858.64050903 1143.44751221 857.2097168 1142.60888672 C856.21238525 1142.0160791 855.21505371 1141.42327148 854.1875 1140.8125 C852.61319214 1139.8846167 852.61319214 1139.8846167 851.00708008 1138.93798828 C847.66719102 1136.96564605 844.33306381 1134.98385121 841 1133 C839.92492188 1132.3620752 838.84984375 1131.72415039 837.7421875 1131.06689453 C824.79367097 1123.37772831 811.95442847 1115.5411792 799.26074219 1107.43847656 C796.98370747 1105.98963331 794.70015358 1104.55169268 792.4140625 1103.1171875 C779.84521817 1095.22684168 767.40251114 1087.14901413 755 1079 C754.0706665 1078.38946777 754.0706665 1078.38946777 753.12255859 1077.76660156 C748.14660719 1074.49031826 743.21553532 1071.15198744 738.30859375 1067.7734375 C737.46522461 1067.19352051 736.62185547 1066.61360352 735.75292969 1066.01611328 C734.08633166 1064.86878076 732.42151181 1063.71885942 730.75878906 1062.56591797 C726.27730156 1059.47823478 721.768999 1056.62326781 717 1054 C716.54898926 1054.32572998 716.09797852 1054.65145996 715.63330078 1054.98706055 C714.99376465 1055.44894775 714.35422852 1055.91083496 713.6953125 1056.38671875 C712.61660889 1057.16583618 712.61660889 1057.16583618 711.51611328 1057.96069336 C709.89743497 1059.12966535 708.27861575 1060.29844225 706.65966797 1061.46704102 C702.60321998 1064.39548232 698.54847733 1067.32617204 694.5 1070.265625 C685.88096305 1076.51784093 677.20326164 1082.6760796 668.46801758 1088.76489258 C662.12462212 1093.19364876 655.84294611 1097.70190166 649.58032227 1102.24389648 C641.07731883 1108.40564272 632.48579803 1114.44037865 623.89550781 1120.47949219 C615.89556845 1126.10578241 607.92087496 1131.76278215 600 1137.5 C592.0807556 1143.23603681 584.10743408 1148.89135229 576.10888672 1154.51611328 C573.27829845 1156.50781454 570.45071934 1158.50375584 567.62402344 1160.50097656 C566.21838475 1161.49300203 564.81150015 1162.48326469 563.40332031 1163.47167969 C559.67029252 1166.09502899 555.9666703 1168.75108809 552.29296875 1171.45703125 C551.52210938 1172.01841797 550.75125 1172.57980469 549.95703125 1173.15820312 C548.47421145 1174.2390537 546.99856112 1175.3298282 545.53125 1176.43164062 C544.86480469 1176.91439453 544.19835938 1177.39714844 543.51171875 1177.89453125 C542.92865967 1178.32612549 542.34560059 1178.75771973 541.74487305 1179.20239258 C540 1180 540 1180 538.04711914 1179.88208008 C535.33561328 1178.71372341 533.78980877 1177.11028135 531.734375 1174.9921875 C530.92613281 1174.16976562 530.11789062 1173.34734375 529.28515625 1172.5 C528.44855469 1171.63375 527.61195313 1170.7675 526.75 1169.875 C520.23002309 1163.11430756 520.23002309 1163.11430756 513.296875 1156.7890625 C505.96057642 1150.5078844 499.34226759 1143.39330278 492.55419922 1136.53369141 C484.50621144 1128.27394215 484.50621144 1128.27394215 476 1120.5 C468.74281366 1114.3473372 462.24074599 1107.29071119 455.55419922 1100.53369141 C446.60369836 1091.4587916 446.60369836 1091.4587916 437.14648438 1082.92382812 C430.862542 1077.29172327 425.05927711 1071.10372175 419.12695312 1065.10644531 C411.30229218 1057.08221076 411.30229218 1057.08221076 403.03125 1049.53125 C395.76639388 1043.36385087 389.25163928 1036.30171929 382.55419922 1029.53369141 C373.40797607 1020.24029154 373.40797607 1020.24029154 363.74853516 1011.49072266 C360.53673411 1008.75248513 357.47887849 1005.86227612 354.4375 1002.9375 C353.79748047 1002.35162109 353.15746094 1001.76574219 352.49804688 1001.16210938 C351.89927734 1000.58138672 351.30050781 1000.00066406 350.68359375 999.40234375 C350.14275146 998.89179443 349.60190918 998.38124512 349.04467773 997.85522461 C347.43321409 994.99345499 348.18337133 993.10735567 349 990 C350.10058594 987.28466797 350.10058594 987.28466797 351.484375 984.4921875 C352.00032227 983.43845947 352.51626953 982.38473145 353.04785156 981.29907227 C353.89041504 979.60415649 353.89041504 979.60415649 354.75 977.875 C355.95188438 975.42511086 357.14771481 972.97228018 358.34375 970.51953125 C358.65032532 969.8925383 358.95690063 969.26554535 359.27276611 968.61955261 C362.35309043 962.30776942 365.3094496 955.94047795 368.25 949.5625 C373.27649366 938.68102063 378.37212769 927.8340322 383.5 917 C388.53933577 906.35118768 393.55353879 895.6923505 398.5 885 C403.08675086 875.0852052 407.72888787 865.1980852 412.40087891 855.32324219 C420.55332258 838.09149388 420.55332258 838.09149388 428.64477539 820.83105469 C429.47892543 819.04512113 430.31656649 817.26081942 431.15429688 815.4765625 C431.89776367 813.87941406 431.89776367 813.87941406 432.65625 812.25 C433.08744141 811.32703125 433.51863281 810.4040625 433.96289062 809.453125 C435.31251915 806.31340404 435.31251915 806.31340404 436 803 C434.23654605 800.71717262 432.5220073 798.77936327 430.5 796.75 C429.37434933 795.57744722 428.2493452 794.40427339 427.125 793.23046875 C426.30708984 792.38814697 426.30708984 792.38814697 425.47265625 791.52880859 C422.52093305 788.46453626 419.76942697 785.22813123 417 782 C416.58314941 781.5148291 416.16629883 781.0296582 415.73681641 780.52978516 C412.68200262 776.97379928 409.63276568 773.4130677 406.58496094 769.85107422 C405.03988485 768.04658148 403.49297021 766.24368504 401.9453125 764.44140625 C399.44621122 761.5310502 396.95041663 758.61789106 394.45703125 755.70263672 C393.49954306 754.58374887 392.54123399 753.46556287 391.58203125 752.34814453 C385.93283099 745.76334493 380.4499165 739.08418306 375.12695312 732.23266602 C371.99246551 728.2147924 368.75397309 724.30603777 365.4375 720.4375 C360.5488608 714.72249093 355.94643105 708.81403906 351.39697266 702.82666016 C349.32498643 700.11736254 347.22445642 697.4306043 345.12548828 694.7421875 C340.00917566 688.18874049 334.91880879 681.61588781 329.87255859 675.00830078 C328.50642351 673.22057104 327.13569523 671.43634136 325.76025391 669.65576172 C322.66515909 665.62513325 319.68331334 661.59642009 316.96484375 657.30078125 C316.26814575 656.23573364 316.26814575 656.23573364 315.55737305 655.14916992 C314.71751794 653.84884524 313.91190704 652.52539036 313.15161133 651.17700195 C311.92880298 649.12166449 311.92880298 649.12166449 309 647 C306.4369018 646.85681469 306.4369018 646.85681469 303.58592224 647.23680115 C302.51139235 647.35103865 301.43686245 647.46527615 300.32977104 647.58297539 C295.07764553 648.24075803 289.84232355 648.96812004 284.60961914 649.76586914 C283.43571625 649.94157944 282.26181335 650.11728973 281.05233765 650.29832458 C278.5264191 650.67691132 276.00076607 651.05727317 273.47535896 651.43925667 C269.47877732 652.04368276 265.481507 652.64333995 261.48399353 653.24156189 C253.00946974 654.51061284 244.53595305 655.78632272 236.0625 657.0625 C226.88727319 658.44422316 217.71185549 659.82462746 208.53538603 661.19807714 C205.21343541 661.69546162 201.89173863 662.19443183 198.57057381 662.69703865 C194.87573176 663.25575737 191.18025635 663.81009453 187.48461914 664.36352539 C186.3900087 664.53026764 185.29539825 664.69700989 184.1676178 664.86880493 C182.65615173 665.09381935 182.65615173 665.09381935 181.114151 665.32337952 C180.24205018 665.45481889 179.36994936 665.58625826 178.47142124 665.72168064 C175.931351 666.00773091 173.55212646 666.17567777 171 666 C169.19360352 664.15087891 169.19360352 664.15087891 167.56640625 661.6015625 C166.67139404 660.22532715 166.67139404 660.22532715 165.75830078 658.82128906 C165.17806152 657.89026367 164.59782227 656.95923828 164 656 C163.48808105 655.20561523 162.97616211 654.41123047 162.44873047 653.59277344 C160.91914138 651.20200404 159.423725 648.79294833 157.9375 646.375 C157.10895508 645.029823 157.10895508 645.029823 156.26367188 643.6574707 C144.89471215 625.10618027 134.21211403 606.20988433 124 587 C123.51885742 586.10087891 123.03771484 585.20175781 122.54199219 584.27539062 C93.60545556 530.1309458 70.37938695 473.58785948 51.68377686 415.1373291 C51.02226595 413.06959824 50.35718451 411.00304085 49.69189453 408.93652344 C40.12119732 379.0977715 32.11710617 348.78372188 23.95623779 318.53668213 C23.08351 315.30886492 22.20563339 312.08252128 21.32470703 308.85693359 C13.84318386 281.44478443 7.54769651 253.86759649 2 226 C1.82166626 225.1091571 1.64333252 224.21831421 1.45959473 223.30047607 C-5.50423349 188.42871364 -10.2948954 153.2324266 -15 118 C-15.15938049 116.80791931 -15.31876099 115.61583862 -15.48297119 114.38763428 C-16.48384656 106.8854721 -17.46783873 99.38125752 -18.4375 91.875 C-18.55724182 90.95423676 -18.67698364 90.03347351 -18.800354 89.08480835 C-23.4149964 53.4269793 -23.4149964 53.4269793 -23.3125 36.5 C-23.30621582 35.00557373 -23.30621582 35.00557373 -23.29980469 33.48095703 C-23.15002367 23.676674 -22.84908369 12.65485824 -16 5 C-10.71080373 0.34046996 -6.99825984 -0.9965522 0 0 Z " fill="#FFFFFF" transform="translate(837,2321)"/>
<path d="M0 0 C0.54446777 0.45342773 1.08893555 0.90685547 1.64990234 1.37402344 C31.68666844 26.7804694 49.02747818 63.2927576 52.50170898 102.19335938 C54.61208067 130.67975104 49.70722741 156.16661563 38.125 182.0625 C22.31693357 217.56893406 16.47205089 252.78275105 25 291 C25.30394843 292.38409817 25.6078175 293.76821378 25.91162109 295.15234375 C39.79624627 357.98162615 60.00485273 420.00789578 92.23925781 475.91357422 C94.77268359 480.35444619 97.23312113 484.83454249 99.69799805 489.3137207 C112.30448873 512.68301113 112.30448873 512.68301113 128 534 C128.78697266 535.01900391 128.78697266 535.01900391 129.58984375 536.05859375 C143.54943963 553.56781793 164.9746581 558.44659289 186.06130981 561.01950073 C210.15555931 563.99047397 233.95270369 568.17495062 257 576 C257.70366699 576.23686523 258.40733398 576.47373047 259.13232422 576.71777344 C269.53030807 580.27234799 279.34208179 584.76892952 289 590 C289.6276123 590.33870117 290.25522461 590.67740234 290.90185547 591.02636719 C331.41261845 613.23820443 360.96620579 653.30076476 373.875 697.25 C378.10315025 712.18487958 381.08065899 727.18922133 381.23828125 742.75 C381.24816574 743.55738617 381.25805023 744.36477234 381.26823425 745.19662476 C381.83387532 803.44334804 363.15870778 853.85542228 322.375 895.875 C317.51877122 900.59046852 312.33917149 904.84502937 307 909 C306.46697266 909.42007324 305.93394531 909.84014648 305.38476562 910.27294922 C281.02407829 929.34982893 253.16242507 941.46583441 223 948 C222.2363916 948.17644043 221.4727832 948.35288086 220.68603516 948.53466797 C180.20191526 957.61009054 133.74689171 950.32716513 97 932 C96.26668457 931.63616211 95.53336914 931.27232422 94.77783203 930.89746094 C76.75860422 921.86626947 60.82198938 910.50550437 46.0625 896.8125 C45.46010498 896.25481934 44.85770996 895.69713867 44.23706055 895.12255859 C10.43758711 863.21720259 -12.3262905 814.95657939 -14.13867188 768.44091797 C-15.19726118 730.26862196 -6.76753928 695.57313563 3.625 659.125 C30.07694079 566.29531515 9.11729572 476.5670468 -38 319 C-40.71837042 314.44652958 -43.75408625 310.19564407 -47 306 C-47.57234375 305.24460937 -48.1446875 304.48921875 -48.734375 303.7109375 C-62.2781487 287.00694994 -81.77758133 281.57216737 -102.13208008 278.93554688 C-131.97809074 275.05330424 -157.41385091 263.05492721 -182 246 C-205.66205897 229.47486501 -205.66205897 229.47486501 -233.73583984 227.4699707 C-246.80852763 230.77649284 -258.50623535 237.44858723 -270.4375 243.5625 C-274.91316917 245.8389709 -279.39214009 248.10890612 -283.87109375 250.37890625 C-284.96835281 250.93671783 -286.06561188 251.49452942 -287.19612122 252.06924438 C-295.51875784 256.28813144 -303.91292251 260.33907998 -312.34216309 264.33973694 C-318.79620114 267.40799556 -325.17662329 270.55025884 -331.4375 274 C-332.7819519 274.73827026 -332.7819519 274.73827026 -334.15356445 275.49145508 C-346.6886606 282.48968599 -358.07015748 290.71530679 -369 300 C-370.08310825 300.85445206 -371.16640149 301.70866976 -372.25 302.5625 C-404.12484924 330.81520728 -408.45285551 373.41237766 -412.06115723 413.2361145 C-415.36061395 449.52083423 -420.59930566 484.98475334 -437 518 C-437.38414062 518.78455566 -437.76828125 519.56911133 -438.1640625 520.37744141 C-443.54646135 531.28765068 -449.44885374 541.43862121 -457 551 C-457.96715942 552.22879883 -457.96715942 552.22879883 -458.95385742 553.48242188 C-464.34179774 560.20533783 -470.07832193 566.42922667 -476.1875 572.5 C-477.10732666 573.41563721 -478.02715332 574.33127441 -478.97485352 575.2746582 C-485.94265414 582.12786286 -493.08381708 588.28808109 -501 594 C-502.07699467 594.81576618 -503.15250253 595.63349877 -504.2265625 596.453125 C-552.91263499 633.06666406 -618.22537892 648.53770751 -678.3203125 640.39794922 C-703.99778055 636.58469549 -728.73480158 629.58482673 -752 618 C-752.81049805 617.60022949 -753.62099609 617.20045898 -754.45605469 616.78857422 C-773.94218769 607.09935806 -791.57986002 595.12991416 -807.5234375 580.2890625 C-809.61682183 578.35416784 -811.75082207 576.51423094 -813.9375 574.6875 C-852.95052627 540.51145463 -877.43265186 487.54436054 -885 437 C-885.11714355 436.22221191 -885.23428711 435.44442383 -885.35498047 434.64306641 C-894.29195157 371.792124 -876.90263129 307.1671452 -839.10644531 256.50439453 C-834.81072674 250.88145535 -830.2509364 245.60892891 -825.37109375 240.48828125 C-823.36392041 238.38190659 -821.48581128 236.23388347 -819.625 234 C-785.02421769 194.42127495 -731.1927417 170.38338339 -680 163 C-679.19208008 162.88285645 -678.38416016 162.76571289 -677.55175781 162.64501953 C-646.10481371 158.31704542 -613.589489 160.67994223 -583 169 C-581.76765625 169.33338379 -580.5353125 169.66676758 -579.265625 170.01025391 C-568.86575049 172.90461495 -558.87399966 176.58809264 -548.85305786 180.58691406 C-546.1770402 181.65409599 -543.49722161 182.71117799 -540.81616211 183.765625 C-537.21295152 185.18291396 -533.61061421 186.60237062 -530.00927734 188.02441406 C-483.08039756 206.54278426 -432.93144335 223.68987806 -382 212 C-381.13729492 211.80664062 -380.27458984 211.61328125 -379.38574219 211.4140625 C-354.82938756 205.73710289 -332.93916076 195.39110445 -313 180 C-312.16726563 179.37222656 -311.33453125 178.74445313 -310.4765625 178.09765625 C-295.56047354 166.42906414 -282.85881516 152.4628367 -272 137 C-271.30946533 136.02788574 -271.30946533 136.02788574 -270.60498047 135.03613281 C-257.1518167 115.88362298 -244.9341178 93.33255486 -238.625 70.75 C-232.9835763 50.61217297 -222.78199796 32.68128389 -209 17 C-207.90558594 15.72382812 -207.90558594 15.72382812 -206.7890625 14.421875 C-184.46358234 -11.1153409 -150.0609038 -30.74989338 -115.89355469 -33.81689453 C-72.95900349 -36.53381264 -33.72666963 -28.1762342 0 0 Z " fill="#FFFFFF" transform="translate(2924,791)"/>
<path d="M0 0 C1.1449292 0.26490234 1.1449292 0.26490234 2.31298828 0.53515625 C31.55168248 7.57277375 58.42432628 23.25161438 80 44 C80.52271484 44.49161621 81.04542969 44.98323242 81.58398438 45.48974609 C114.12459221 76.18440725 133.93128496 119.709754 135.28125 164.51171875 C136.17934034 215.6997391 118.64790692 261.76268338 83.1953125 298.80859375 C78.78732258 303.2921265 74.01459703 307.2151206 69 311 C68.15308594 311.66257812 67.30617188 312.32515625 66.43359375 313.0078125 C38.84702833 333.97524672 4.44465174 343.30418151 -28.56967163 351.81213379 C-68.02841656 362.01765259 -105.92030672 372.71839222 -140 396 C-140.63969727 396.43554199 -141.27939453 396.87108398 -141.93847656 397.31982422 C-150.9248412 403.4869837 -159.53186777 410.14357582 -168 417 C-168.52432617 417.41846191 -169.04865234 417.83692383 -169.58886719 418.26806641 C-178.35977587 425.3062126 -186.34809466 433.13988142 -194.3125 441.0625 C-194.82455994 441.56929291 -195.33661987 442.07608582 -195.86419678 442.59823608 C-202.7122531 449.39178147 -209.03352536 456.4030451 -215 464 C-215.57371338 464.71969971 -216.14742676 465.43939941 -216.73852539 466.1809082 C-250.23314657 508.41904351 -271.18955582 557.92870872 -280 611 C-280.16661133 611.95745117 -280.33322266 612.91490234 -280.50488281 613.90136719 C-286.70902514 650.85647581 -285.31317099 691.58819559 -276.20605469 727.84863281 C-261.97712149 784.96124394 -273.0937544 848.8474464 -303.24707031 899.07739258 C-318.99339532 924.5959189 -339.6763835 948.36586751 -364 966 C-364.63019043 966.45858398 -365.26038086 966.91716797 -365.90966797 967.38964844 C-375.53712128 974.33521968 -385.46736991 980.52462077 -396 986 C-396.77939941 986.40605469 -397.55879883 986.81210938 -398.36181641 987.23046875 C-453.36539959 1015.49876609 -518.29303027 1019.77899895 -577.0637207 1001.25146484 C-622.49374401 986.38951767 -665.1374297 957.27961526 -693 918 C-693.54221191 917.2373584 -694.08442383 916.4747168 -694.64306641 915.68896484 C-730.41545131 864.83772686 -746.14010152 801.85941861 -735.83618164 740.14794922 C-727.66222914 695.82435535 -708.8211246 655.08650706 -678 622 C-676.78661781 620.60855334 -675.57802197 619.21291361 -674.375 617.8125 C-667.86081817 610.37621937 -660.72086125 604.16878031 -653 598 C-651.97164984 597.14704524 -650.9443262 596.29285155 -649.91796875 595.4375 C-613.10922347 565.13653198 -568.99582183 551.62762501 -522.54888916 545.25177002 C-481.83313794 539.64197597 -442.10347979 528.88944963 -405 511 C-404.1759668 510.60844727 -403.35193359 510.21689453 -402.50292969 509.81347656 C-371.9346237 495.23980475 -343.68408514 475.73136632 -318.89453125 452.671875 C-316.3422461 450.31591948 -313.74423754 448.03057999 -311.125 445.75 C-261.50201495 401.16123082 -225.23404313 332.61187522 -220 266 C-219.89068309 262.86487614 -219.90178521 259.73737945 -219.93408203 256.60083008 C-219.93875488 255.71947891 -219.94342773 254.83812775 -219.94824219 253.93006897 C-219.95866861 252.03246086 -219.97130494 250.13486382 -219.98596573 248.23728371 C-220.00825132 245.20991955 -220.02216273 242.18262053 -220.03366089 239.15519714 C-220.06697916 230.55234977 -220.10820234 221.94960778 -220.17138672 213.34692383 C-220.2095877 208.06391875 -220.23222581 202.78102337 -220.24569321 197.49790001 C-220.25361558 195.51008745 -220.26702805 193.52228718 -220.28662491 191.53455544 C-220.46172471 173.44128396 -219.4122446 154.99776447 -214.1875 137.5625 C-213.79848511 136.20934692 -213.79848511 136.20934692 -213.40161133 134.82885742 C-204.04748187 102.97845652 -187.92395294 74.10131609 -165 50 C-164.4730957 49.44054688 -163.94619141 48.88109375 -163.40332031 48.3046875 C-140.09563311 23.70140174 -111.14047646 6.56826105 -78 -1 C-77.31695801 -1.16371094 -76.63391602 -1.32742188 -75.93017578 -1.49609375 C-51.7968046 -7.05693719 -23.9415398 -5.6387951 0 0 Z " fill="#FFFFFF" transform="translate(1606,1360)"/>
<path d="M0 0 C10.66495832 9.70598387 20.26882451 20.00313147 28.79199219 31.63085938 C29.42234375 32.47777344 30.05269531 33.3246875 30.70214844 34.19726562 C63.1445466 79.05497788 76.39114826 136.53559287 68.10449219 191.19335938 C62.07964633 227.82604323 47.55401743 262.9096504 23.79199219 291.63085938 C23.32148437 292.20288086 22.85097656 292.77490234 22.36621094 293.36425781 C-13.52261634 336.75754303 -64.6242305 365.03662779 -120.89550781 370.88085938 C-130.56034721 371.75862034 -140.26155703 371.85798297 -149.95800781 372.06835938 C-244.83711169 374.13798511 -335.78797598 406.13723214 -415.20800781 469.63085938 C-416.03002686 470.29843262 -416.03002686 470.29843262 -416.86865234 470.97949219 C-425.93590149 478.38550582 -434.28969706 486.50619429 -442.58300781 494.75585938 C-443.09329529 495.26087982 -443.60358276 495.76590027 -444.1293335 496.28622437 C-450.94794984 503.05033681 -457.27624518 510.06371808 -463.20800781 517.63085938 C-464.01431641 518.64817139 -464.01431641 518.64817139 -464.83691406 519.68603516 C-500.34872963 564.92302871 -513.44527717 616.37421742 -520.45141602 672.52716064 C-523.79001484 699.26428565 -528.13056313 723.78898743 -541.20800781 747.63085938 C-541.71203125 748.55382813 -542.21605469 749.47679687 -542.73535156 750.42773438 C-548.89133548 761.13675903 -556.72455141 770.69530655 -565.20800781 779.63085938 C-565.6769043 780.13230469 -566.14580078 780.63375 -566.62890625 781.15039062 C-593.93177628 810.20276495 -634.2291626 829.60441984 -674.33996582 830.92047119 C-677.96303966 830.99971484 -681.58417178 831.01562194 -685.20800781 831.00585938 C-686.35536911 831.00504364 -686.35536911 831.00504364 -687.52590942 831.00421143 C-700.45038435 830.96215216 -712.65214427 829.86273865 -725.20800781 826.63085938 C-726.0265625 826.43250488 -726.84511719 826.23415039 -727.68847656 826.02978516 C-752.57600283 819.89092713 -774.96528151 807.40872408 -794.20800781 790.63085938 C-794.94446533 789.99494873 -794.94446533 789.99494873 -795.69580078 789.34619141 C-802.97407999 783.02819261 -809.38833898 776.34243469 -815.20800781 768.63085938 C-815.60729492 768.1065332 -816.00658203 767.58220703 -816.41796875 767.04199219 C-843.00136548 731.90874421 -855.01684556 688.45587086 -849.38793945 644.56567383 C-848.78338815 640.55956744 -848.04675258 636.5942586 -847.20800781 632.63085938 C-847.04171875 631.84308105 -846.87542969 631.05530273 -846.70410156 630.24365234 C-839.92629723 599.42346987 -824.1573751 572.08408588 -802.20800781 549.63085938 C-801.21607422 548.54611328 -801.21607422 548.54611328 -800.20410156 547.43945312 C-771.28323069 516.51973156 -726.70925166 509.09192727 -687.14550781 501.63085938 C-648.876053 494.40035682 -612.49029702 484.34886872 -577.20800781 467.63085938 C-575.79817627 466.96618652 -575.79817627 466.96618652 -574.35986328 466.28808594 C-554.32311194 456.76201801 -535.17231951 445.66127859 -517.20800781 432.63085938 C-516.54075684 432.14762207 -515.87350586 431.66438477 -515.18603516 431.16650391 C-502.20498663 421.71147615 -490.05916993 411.4662076 -478.20800781 400.63085938 C-477.1444035 399.67230655 -476.08058981 398.71398601 -475.01660156 397.75585938 C-468.32926733 391.70045291 -462.13780616 385.44241212 -456.20800781 378.63085938 C-454.75034891 377.04690512 -453.29200163 375.46358411 -451.83300781 373.88085938 C-446.29713423 367.71286182 -441.2164102 361.22910002 -436.20800781 354.63085938 C-435.70785156 353.97649902 -435.20769531 353.32213867 -434.69238281 352.64794922 C-390.18281637 294.04649668 -366.75079365 222.02671985 -358.31347656 149.52783203 C-352.38948936 99.43779655 -336.97846658 53.49530945 -302.28222656 15.89257812 C-300.40679195 13.8476127 -298.61768249 11.75466463 -296.83300781 9.63085938 C-266.98925429 -24.35032362 -221.13585129 -45.26402006 -177.20800781 -52.36914062 C-175.94730469 -52.5934375 -174.68660156 -52.81773437 -173.38769531 -53.04882812 C-110.87354898 -62.41953179 -46.89841066 -41.64557317 0 0 Z " fill="#FFFFFF" transform="translate(1819.2080078125,911.369140625)"/>
<path d="M0 0 C1.59007157 1.42082578 3.1613016 2.85946229 4.72583008 4.30834961 C5.26836426 4.80705566 5.81089844 5.30576172 6.36987305 5.81958008 C22.97256709 21.25341329 35.24965953 39.87844075 42.72583008 61.30834961 C42.95399414 61.9614209 43.1821582 62.61449219 43.41723633 63.28735352 C55.44072805 98.62783098 52.74598536 137.0528316 37.40551758 170.95288086 C19.98972761 205.74395895 -9.55876212 232.05582328 -46.34057617 244.76928711 C-82.54834393 256.55181086 -123.32800984 253.59935067 -157.30541992 236.44116211 C-167.84709419 230.88832494 -177.25581357 224.09629456 -186.27416992 216.30834961 C-187.44399414 215.33961914 -187.44399414 215.33961914 -188.63745117 214.35131836 C-194.63747071 209.26321889 -199.48287308 203.53103567 -204.27416992 197.30834961 C-204.94319336 196.45499023 -205.6122168 195.60163086 -206.30151367 194.72241211 C-229.13998708 164.60276203 -238.16521023 126.72337218 -233.4519043 89.36328125 C-228.44853735 55.21931524 -211.23706729 22.26450794 -184.27416992 0.30834961 C-183.36280273 -0.45219727 -182.45143555 -1.21274414 -181.51245117 -1.99633789 C-129.81150838 -43.64251766 -50.51051064 -43.90427367 0 0 Z " fill="#FFFFFF" transform="translate(2124.274169921875,723.691650390625)"/>
<path d="M0 0 C0.60005859 0.34401855 1.20011719 0.68803711 1.81835938 1.04248047 C32.10652769 18.75461816 54.02783507 48.12581601 63 82 C71.43818379 115.0853082 66.65885608 151.36661527 49.70605469 181.01196289 C45.67805631 187.79437604 41.18003885 194.0399553 36 200 C35.29101562 200.83015625 34.58203125 201.6603125 33.8515625 202.515625 C10.97145772 228.68725363 -21.37237866 244.38721238 -56 247 C-92.94717573 249.31983995 -127.02064396 237.02402805 -155 213 C-179.92784881 190.78673765 -195.80947766 157.99920844 -197.91015625 124.64453125 C-197.93980469 123.77183594 -197.96945313 122.89914062 -198 122 C-198.03996094 120.95199219 -198.07992187 119.90398437 -198.12109375 118.82421875 C-198.74323576 86.50943105 -188.30143104 54.50898244 -167 30 C-166.29101562 29.16984375 -165.58203125 28.3396875 -164.8515625 27.484375 C-124.17874226 -19.03962289 -53.67208094 -30.81752272 0 0 Z " fill="#FFFFFF" transform="translate(3243,977)"/>
<path d="M0 0 C0.69319336 0.16097168 1.38638672 0.32194336 2.10058594 0.48779297 C35.21690211 8.46421248 64.75509649 30.48335114 82.52050781 59.48193359 C89.46595775 71.44151498 94.62559002 83.59460584 98 97 C98.26248535 97.98637451 98.26248535 97.98637451 98.53027344 98.99267578 C103.86697073 119.74238893 102.75194542 143.48299502 97 164 C96.81808105 164.6698291 96.63616211 165.3396582 96.44873047 166.02978516 C87.20113389 199.17733643 63.63129676 227.62536847 33.9597168 244.60986328 C2.91502493 261.58828125 -34.80229829 265.56276805 -68.77246094 255.69970703 C-86.32858247 250.18503755 -102.07065693 242.10637535 -116 230 C-116.83015625 229.29101562 -117.6603125 228.58203125 -118.515625 227.8515625 C-144.20574543 205.39240813 -160.36247409 173.10407478 -163 139 C-164.84026204 103.81404492 -154.99849199 69.29719321 -131.42382812 42.57324219 C-122.48149526 32.69251637 -113.4084 23.99091339 -102 17 C-100.31970703 15.95585938 -100.31970703 15.95585938 -98.60546875 14.890625 C-69.49546098 -2.7363718 -33.06323368 -7.85622376 0 0 Z " fill="#FFFFFF" transform="translate(2730,1170)"/>
<path d="M0 0 C23.71545102 19.90201474 39.88877128 47.02222653 42.89233398 78.21899414 C45.09154015 111.7810397 36.17922378 142.78354097 13.89233398 168.21899414 C-6.62067169 191.1452946 -34.90320297 204.27425792 -65.48706055 206.38305664 C-98.7587227 208.02508809 -128.3949318 196.64160018 -153.03344727 174.60180664 C-169.47287865 158.92970374 -181.3461594 138.50395244 -186.10766602 116.21899414 C-186.32938477 115.27411133 -186.55110352 114.32922852 -186.77954102 113.35571289 C-192.78389949 82.72537066 -185.66381356 51.26699694 -168.86791992 25.30249023 C-151.38319199 -0.13048301 -124.63628394 -17.17830195 -94.50341797 -23.25976562 C-61.37625626 -29.20397607 -26.27375391 -21.3203535 0 0 Z " fill="#FFFFFF" transform="translate(2440.107666015625,682.781005859375)"/>
<path d="M0 0 C15.69422444 12.83600475 28.59891236 28.25752191 31.359375 48.9296875 C31.6180363 52.66477024 31.64448312 56.3742893 31.609375 60.1171875 C31.60478271 61.14513428 31.60019043 62.17308105 31.59545898 63.23217773 C31.45522808 75.42483673 30.55477755 87.64725558 28.8125 99.71875 C27.35005725 110.08192187 27.86063879 118.91915603 34.27734375 127.4921875 C51.99647442 148.06519586 76.25543499 155.60558957 102.4921875 158.828125 C103.7922876 158.98990234 105.0923877 159.15167969 106.43188477 159.31835938 C109.0274344 159.63935886 111.62224885 159.93608321 114.22241211 160.22070312 C127.11836257 161.77863713 138.64106944 164.94733129 148.359375 173.9296875 C149.03355469 174.50203125 149.70773437 175.074375 150.40234375 175.6640625 C161.6917223 185.88346126 168.39450952 201.79614596 169.50024414 216.84716797 C170.38695816 235.76817833 166.16245596 252.64424445 153.296875 267.1796875 C141.39627196 279.8952299 124.03097603 288.43665452 106.5625 289.265625 C96.53843555 289.44775335 87.70253411 288.96654157 78.359375 284.9296875 C76.9671875 284.34574219 76.9671875 284.34574219 75.546875 283.75 C62.13047938 277.30860551 53.72267831 265.94903689 47.359375 252.9296875 C46.94042969 252.07761719 46.52148438 251.22554687 46.08984375 250.34765625 C40.40887696 237.51760766 39.95790525 224.0730993 39.82543945 210.26806641 C39.46102517 189.1201385 30.71025932 170.59995363 15.546875 155.9296875 C4.80124719 146.84244005 -7.8303669 143.26996877 -21.640625 143.9296875 C-25.75265945 144.4479661 -29.81432131 145.18512979 -33.890625 145.9296875 C-59.13372417 150.20362195 -82.23675973 146.56408882 -103.640625 131.9296875 C-120.47154313 119.60794075 -129.78860766 104.13046942 -134.109375 83.71484375 C-137.39166185 62.15204263 -131.45073465 38.25857278 -118.94921875 20.53125 C-117.23297205 18.28131585 -115.45204208 16.10338799 -113.640625 13.9296875 C-113.14304687 13.27484375 -112.64546875 12.62 -112.1328125 11.9453125 C-100.20279019 -3.04215272 -80.70550023 -11.4221214 -62.28515625 -14.66015625 C-40.2574082 -17.13916327 -18.01417564 -13.60130711 0 0 Z " fill="#FFFFFF" transform="translate(3446.640625,1191.0703125)"/>
<path d="M0 0 C18.91122 17.5712383 31.59527085 43.08159184 32.56640625 69.046875 C32.58991515 71.43738476 32.5907775 73.82821224 32.5703125 76.21875 C32.56201416 77.48291748 32.55371582 78.74708496 32.54516602 80.04956055 C32.24982221 96.50157684 28.52977474 110.33831633 21.1328125 124.96875 C20.59785156 126.02707031 20.06289062 127.08539062 19.51171875 128.17578125 C6.5133489 151.95936925 -16.06412749 169.24628158 -41.8671875 176.96875 C-71.90023615 184.79404486 -101.22780967 180.73443465 -128.00634766 165.11523438 C-132.31135867 162.46286863 -136.10205645 159.32521024 -139.8671875 155.96875 C-140.63289063 155.33324219 -141.39859375 154.69773437 -142.1875 154.04296875 C-161.08278573 138.06204065 -173.22279189 113.49866741 -175.8671875 88.96875 C-177.3485587 57.54563637 -170.88822911 30.1536533 -149.48925781 6.44189453 C-130.18747811 -14.62552338 -104.69295915 -26.35073825 -76.18408203 -27.9453125 C-47.75614906 -28.99975216 -21.19060346 -18.94715719 0 0 Z " fill="#FFFFFF" transform="translate(1957.8671875,1280.03125)"/>
<path d="M0 0 C1.05058594 0.350625 2.10117188 0.70125 3.18359375 1.0625 C23.03491117 8.49706361 38.35619559 24.27101665 47.48828125 43.0625 C56.57968567 63.65895603 57.71352491 86.69320357 50.05053711 107.9230957 C41.69339315 129.31771598 25.66528746 144.9267052 5.18359375 154.71875 C-16.36849881 163.3924756 -40.2074561 163.40913173 -61.63037109 154.53344727 C-82.03992648 145.50791237 -97.69692776 128.60579513 -106 108 C-113.5753234 84.35139427 -112.59726049 61.17052783 -101.4375 38.87890625 C-97.48351093 31.69399556 -92.6932405 25.86762805 -87 20 C-86.45988281 19.38640625 -85.91976563 18.7728125 -85.36328125 18.140625 C-64.63492366 -4.62401961 -28.01513451 -9.60157936 0 0 Z " fill="#FFFFFF" transform="translate(1310,1122)"/>
<path d="M0 0 C1.32020557 1.11594735 2.63351011 2.24014687 3.9375 3.375 C4.51242187 3.808125 5.08734375 4.24125 5.6796875 4.6875 C19.83299141 15.64489658 28.85680428 34.05936542 31.9375 51.375 C32.2778125 53.2621875 32.2778125 53.2621875 32.625 55.1875 C34.99857172 79.6807401 28.95303281 101.26827814 13.4375 120.46875 C-0.32823225 136.63592529 -20.48503587 147.46135569 -41.75 149.24609375 C-42.8946875 149.30990234 -42.8946875 149.30990234 -44.0625 149.375 C-45.361875 149.45427734 -45.361875 149.45427734 -46.6875 149.53515625 C-60.35458459 149.96225264 -73.65815533 147.05625497 -86.0625 141.375 C-86.98289062 140.95605469 -87.90328125 140.53710938 -88.8515625 140.10546875 C-107.46897175 130.79676412 -120.92468874 114.18396195 -128.37890625 94.984375 C-135.40659359 73.51232658 -134.73168121 50.89573511 -125.0625 30.375 C-114.21764821 8.98352983 -97.56159358 -4.64831193 -75.40625 -13.00390625 C-50.07827428 -20.63954599 -21.06202327 -16.09995338 0 0 Z " fill="#FFFFFF" transform="translate(1003.0625,1724.625)"/>
<path d="M0 0 C15.65248206 12.97831193 26.90007711 30.97997992 30 51.3125 C31.92396329 77.4771266 27.01685806 99.89227033 10 120.3125 C-3.16124202 135.33869534 -22.26872888 144.74622425 -42 147.3125 C-64.41061684 148.63934172 -85.81982503 144.56088152 -103.73046875 130.109375 C-106.21433653 127.89982242 -108.61440633 125.6273169 -111 123.3125 C-111.62519531 122.76078125 -112.25039062 122.2090625 -112.89453125 121.640625 C-125.99331975 109.69500298 -134.0726712 89.74641417 -135.12597656 72.21582031 C-135.67154193 56.54635433 -133.89471777 42.61558213 -127 28.3125 C-126.58105469 27.39984375 -126.16210938 26.4871875 -125.73046875 25.546875 C-121.78680053 17.59134834 -116.19557358 11.53215532 -110 5.3125 C-108.84371094 4.10400391 -108.84371094 4.10400391 -107.6640625 2.87109375 C-78.67533567 -25.57347609 -30.94698254 -23.58323708 0 0 Z " fill="#FFFFFF" transform="translate(2650,708.6875)"/>
<path d="M0 0 C15.72121262 12.02210377 26.19141852 28.9781235 29.69921875 48.4609375 C32.13154305 71.06435523 27.19183004 91.56660918 13.05859375 109.6484375 C1.23154381 123.50725913 -15.59614369 133.92646457 -33.9140625 136.0546875 C-56.4392491 137.67003953 -77.14797738 133.49144786 -94.8515625 118.8046875 C-109.88124686 105.67998137 -118.59472842 87.78007162 -120.9140625 68.0546875 C-122.19487792 47.75868928 -116.83586528 28.76902134 -103.9140625 13.0546875 C-103.37136719 12.34957031 -102.82867188 11.64445312 -102.26953125 10.91796875 C-77.1364508 -20.20791434 -31.34833107 -20.92690197 0 0 Z " fill="#FFFFFF" transform="translate(1563.9140625,1802.9453125)"/>
<path d="M0 0 C2.49757417 2.18443421 4.83827401 4.44354758 7.1484375 6.82421875 C7.79425781 7.46101563 8.44007813 8.0978125 9.10546875 8.75390625 C20.29538948 20.50454197 24.13219606 36.02130221 24.1484375 51.82421875 C23.28622579 65.44716379 18.55133294 77.14671403 10.1484375 87.82421875 C9.53226563 88.64921875 8.91609375 89.47421875 8.28125 90.32421875 C-2.34998594 102.78574073 -17.9970332 108.6288294 -33.91796875 110.109375 C-50.73169755 110.62430944 -66.21383632 104.61757559 -79.08203125 93.98046875 C-87.02230701 86.48558564 -92.45975329 77.15304479 -95.8515625 66.82421875 C-96.07714844 66.16679688 -96.30273438 65.509375 -96.53515625 64.83203125 C-100.80988347 49.67886028 -98.10967113 32.10428334 -90.6640625 18.51171875 C-81.15589989 3.46049963 -67.38638226 -7.20563338 -49.8515625 -11.17578125 C-32.14102653 -14.0791478 -14.4960775 -11.06070571 0 0 Z " fill="#FFFFFF" transform="translate(3432.8515625,1439.17578125)"/>
<path d="M0 0 C10.31283657 7.63397662 16.63616562 17.92623331 18.79296875 30.5546875 C20.23708089 44.15974399 17.44874564 56.21125981 9.2265625 67.23828125 C2.56736126 74.8049744 -7.52204272 81.5165704 -17.79711914 82.4152832 C-31.9062939 82.81996871 -42.76150642 81.91472282 -53.7734375 72.23828125 C-54.37929687 71.73683594 -54.98515625 71.23539063 -55.609375 70.71875 C-63.54426736 63.59813699 -68.22084012 52.78591764 -69.109375 42.2578125 C-69.38874023 29.24123495 -67.04652006 18.6450542 -58.7734375 8.23828125 C-58.29519531 7.62339844 -57.81695313 7.00851563 -57.32421875 6.375 C-43.06621355 -9.82238122 -17.45281095 -11.08622216 0 0 Z " fill="#FFFFFF" transform="translate(1451.7734375,2057.76171875)"/>
</svg>
